<svg id="SvgjsSvg1001" width="288" height="288" xmlns="http://www.w3.org/2000/svg" version="1.1" xmlns:xlink="http://www.w3.org/1999/xlink" xmlns:svgjs="http://svgjs.com/svgjs"><defs id="SvgjsDefs1002"></defs><g id="SvgjsG1008" transform="matrix(1,0,0,1,0,0)"><svg xmlns="http://www.w3.org/2000/svg" width="288" height="288" version="1.0" viewBox="0 0 512 512"><path d="M187 3510 c-21 -6 -51 -16 -66 -25 -43 -22 -97 -90 -110 -138 -9 -31-11 -241 -9 -772 l3 -730 26 -56 c33 -69 88 -124 159 -158 52 -24 64 -26 205
-26 141 0 153 2 207 27 66 31 128 91 160 156 19 39 23 67 26 170 l4 122 754 0
753 0 45 -30 c50 -34 118 -50 216 -50 98 0 166 16 216 50 l45 30 753 0 754 0
4 -122 c3 -103 7 -131 26 -170 32 -65 94 -125 160 -156 54 -25 66 -27 207 -27
141 0 153 2 205 26 71 34 126 89 159 158 l26 56 3 730 c2 536 0 741 -9 773
-16 58 -78 126 -137 149 -40 15 -77 18 -267 18 -205 -1 -224 -2 -278 -24 -110
-43 -195 -131 -235 -243 l-16 -47 -481 -3 -480 -3 -67 -33 c-40 -20 -81 -49
-103 -74 -38 -45 -75 -132 -75 -178 l0 -30 -76 0 c-68 0 -80 3 -119 30 -99 68
-331 68 -430 0 -39 -27 -51 -30 -119 -30 l-76 0 0 30 c0 46 -37 133 -75 178
-22 25 -63 54 -103 74 l-67 33 -480 3 -481 3 -16 47 c-40 112 -126 200 -235
243 -52 20 -79 23 -263 25 -113 2 -222 -1 -243 -6z m413 -150 c72 -14 137 -62
172 -129 27 -52 28 -58 28 -216 0 -149 2 -165 23 -205 44 -84 4 -80 754 -80
l663 0 0 -90 0 -90 -57 0 c-70 0 -93 -18 -93 -70 0 -50 25 -70 94 -77 l56 -6
0 -83 0 -84 -725 0 -725 0 0 88 0 87 506 -3 c279 -2 522 -1 541 3 64 12 94 73
59 121 -14 18 -34 19 -543 24 -516 5 -529 6 -588 28 -79 29 -89 37 -344 260
-257 224 -264 235 -269 377 -3 79 -1 93 17 117 12 15 31 29 44 31 46 9 336 7
387 -3z m4347 -24 c23 -27 25 -35 21 -120 -5 -141 -15 -155 -241 -354 -240
-210 -285 -246 -322 -264 -32 -16 -96 -33 -158 -43 -71 -11 -101 -76 -57 -123
17 -18 32 -22 80 -22 l60 0 0 -90 0 -90 -725 0 -725 0 0 85 0 84 535 3 534 3
22 22 c27 27 29 75 4 103 -18 20 -30 20 -557 20 l-538 0 0 90 0 90 663 0 c750
0 710 -4 754 80 21 40 23 56 23 205 0 158 1 164 28 216 33 63 100 116 164 129
24 5 126 8 226 7 l184 -2 25 -29z m-3020 -318 c40 -27 73 -79 73 -117 l0 -21
-525 0 -525 0 0 85 0 86 468 -3 468 -3 41 -27z m2243 -53 l0 -85 -525 0 -525
0 0 21 c0 58 59 124 124 139 17 5 232 8 479 9 l447 1 0 -85z m-3801 -280 c100
-88 202 -173 227 -189 l44 -30 0 -290 c0 -269 -1 -293 -20 -330 -33 -69 -74
-89 -193 -94 -117 -5 -172 6 -218 45 -59 50 -59 46 -59 583 0 473 1 491 18
478 10 -7 100 -85 201 -173z m4591 -817 c-13 -46 -67 -94 -122 -109 -26 -7
-84 -9 -145 -7 -119 5 -160 25 -193 94 -19 37 -20 61 -20 331 l0 290 53 36
c28 19 138 110 242 202 l190 167 3 -484 c2 -318 -1 -495 -8 -520z m-2262 909
l27 -27 0 -270 0 -270 -28 -27 c-27 -27 -31 -28 -137 -28 -106 0 -110 1 -137
28 l-28 27 0 269 0 269 24 26 c30 32 45 35 159 32 86 -2 94 -4 120 -29z" transform="matrix(.1 0 0 -.1 0 512)" fill="#ffffff" class="color000 svgShape"></path></svg></g></svg>