<svg id="SvgjsSvg1001" width="288" height="288" xmlns="http://www.w3.org/2000/svg" version="1.1" xmlns:xlink="http://www.w3.org/1999/xlink" xmlns:svgjs="http://svgjs.com/svgjs"><defs id="SvgjsDefs1002"></defs><g id="SvgjsG1008" transform="matrix(1,0,0,1,0,0)"><svg xmlns="http://www.w3.org/2000/svg" width="288" height="288" version="1.0" viewBox="0 0 512 512"><g transform="matrix(.1 0 0 -.1 0 512)" fill="#ffffff" class="color000 svgShape"><path d="M2415 4460 c-269 -31 -540 -154 -729 -330 -98 -92 -114 -137 -76-215 27 -56 86 -89 146 -82 44 5 50 8 166 105 106 89 247 161 384 197 308 81
650 6 892 -197 116 -97 122 -100 166 -105 60 -7 119 26 146 82 38 78 22 123
-76 215 -167 156 -426 282 -656 320 -94 15 -274 20 -363 10z" fill="#ffffff" class="color000 svgShape"></path><path d="M2473 3959c-175-17-356-103-473-223-44-45-45-49-45-109 0-46 5-69 20-89 30-39 70-60 120-60 50 0 73 11 135 62 103 84 206 123 330 123 124 0 227-39 330-123 62-51 85-62 135-62 50 0 90 21 120 60 15 20 20 43 20 89 0 60-1 64-45 109-157 161-406 248-647 223zM2509 3449c-140-21-230-136-190-241 14-38 61-77 105-89 35-9 48-8 90 10 46 19 50 19 80 4 90-47 200 8 213 107 8 55-2 85-42 129-58 64-158 95-256 80zM805 3013c-238-34-457-155-602-333-65-80-145-238-175-345-21-76-22-99-23-472 0-383 0-392 21-420 31-42 73-62 142-69l62-7 0-141c0-214 34-317 143-428 87-89 225-148 345-148 56 0 161 29 223 62 65 34 148 113 185 175 53 91 65 147 71 319l6 161 60 7c112 11 156 59 165 176l5 69 336 3c332 3 337 3 381 27 69 37 116 77 151 132l32 49 227 0 227 0 32-49c35-55 82-95 151-132 44-24 49-24 381-27l336-3 5-69c9-117 53-165 165-176l60-7 6-161c6-172 18-228 71-319 37-62 120-141 185-175 62-33 167-62 223-62 120 0 258 59 345 148 109 111 143 214 143 428l0 141 62 7c69 7 111 27 142 69 21 28 21 37 21 420-1 451-3 468-95 652-90 181-225 316-405 405-169 84-232 95-552 95-259 0-273-1-299-21-50-37-64-66-71-142l-6-72-1127 0-1127 0-6 72c-7 76-21 105-71 142-26 20-42 21-274 22-136 1-260 0-277-3zm323-815l-3-523-412-3-413-2 0 247c0 282 10 347 64 458 62 125 156 219 281 281 97 48 175 62 343 63l142 1-2-522zm3262 494c185-61 341-216 402-402 20-59 22-91 26-343l4-277-414 2-413 3-3 524-2 523 167-4c135-4 181-9 233-26zm-700-492l0-280-298 0c-337 0-324-3-337 78-8 50-46 99-92 118-47 20-759 20-806 0-46-19-84-68-92-118-13-81 0-78-337-78l-298 0 0 280 0 280 1130 0 1130 0 0-280zm-2790-947c0-65-5-136-10-157-17-74-78-130-156-142-58-8-138 29-174 82-23 35-25 47-28 186l-3 148 185 0 186 0 0-117zm3688-31c-3-139-5-151-28-186-36-53-116-90-174-82-78 12-139 68-156 142-5 21-10 92-10 157l0 117 186 0 185 0-3-148z" fill="#ffffff" class="color000 svgShape"></path></g></svg></g></svg>