<svg id="SvgjsSvg1020" width="288" height="288" xmlns="http://www.w3.org/2000/svg" version="1.1" xmlns:xlink="http://www.w3.org/1999/xlink" xmlns:svgjs="http://svgjs.com/svgjs"><defs id="SvgjsDefs1021"></defs><g id="SvgjsG1022"><svg xmlns="http://www.w3.org/2000/svg" width="288" height="288" version="1.0" viewBox="0 0 512 512"><g transform="matrix(.1 0 0 -.1 0 512)" fill="#ffffff" class="color000 svgShape"><path d="M2731 5083 c-79 -47 -224 -182 -291 -271 -53 -72 -137 -234 -165-319 l-16 -52 -41 15 c-73 25 -168 44 -270 53 -237 20 -515 -46 -575 -137 -62
-95 -26 -412 72 -621 19 -40 35 -75 35 -77 0 -2 -64 -4 -143 -4 -168 0 -233
-11 -316 -54 -158 -81 -264 -223 -290 -386 -7 -39 -11 -274 -11 -582 l0 -516
-66 -22 c-323 -104 -564 -381 -623 -714 -7 -34 -11 -211 -11 -416 0 -355 0
-357 23 -391 31 -46 80 -69 150 -69 l57 0 0 -58 c0 -166 109 -334 266 -409
304 -145 642 41 685 379 l11 86 64 4 c105 7 151 54 161 165 l6 72 326 3 c314
3 328 4 375 26 68 31 131 85 162 138 l26 44 228 0 228 0 26 -44 c31 -53 94
-107 162 -138 47 -22 61 -23 375 -26 l326 -3 6 -72 c10 -111 56 -158 161 -165
l64 -4 11 -86 c43 -338 381 -524 685 -379 157 75 266 243 266 409 l0 58 58 0
c69 0 118 23 149 69 23 34 23 36 23 391 0 205 -4 382 -11 416 -59 333 -300
610 -623 714 l-66 22 0 516 c0 308 -4 543 -11 582 -26 163 -132 305 -290 386
-94 48 -143 54 -467 54 -276 0 -294 1 -287 18 195 459 81 974 -287 1298 -91
81 -182 134 -228 134 -23 0 -58 -13 -99 -37z m175 -365 c102 -107 167 -221
210 -368 25 -87 26 -316 1 -405 -29 -105 -108 -275 -129 -275 -4 0 -8 125 -8
278 0 310 -3 325 -69 369 -71 48 -175 20 -213 -57 -16 -31 -18 -68 -18 -312 0
-161 -4 -278 -9 -278 -17 0 -110 203 -126 275 -65 287 11 568 210 773 34 34
68 62 76 62 9 0 43 -28 75 -62z m-848 -529 c40 -10 93 -27 117 -38 43 -19 45
-22 46 -63 0 -24 4 -65 9 -93 4 -27 7 -51 5 -53 -1 -1 -29 17 -62 42 -82 60
-95 66 -145 66 -52 0 -100 -27 -129 -72 -15 -25 -19 -45 -16 -86 4 -62 19 -80
127 -161 l75 -56 -115 -3 -115 -3 -38 43 c-79 89 -153 273 -171 425 l-6 51 67
11 c38 6 82 13 98 15 54 6 178 -6 253 -25z m1895 -832 c47 -20 95 -64 120
-111 22 -41 22 -43 25 -670 2 -423 -1 -646 -8 -681 -13 -62 -62 -125 -124
-158 l-41 -22 -1365 0 -1365 0 -41 22 c-62 33 -111 96 -124 158 -7 35 -10 258
-8 681 3 627 3 629 25 670 24 46 72 90 118 110 45 20 2741 20 2788 1z m-3194
-1601 c34 -90 107 -185 183 -238 56 -39 85 -54 176 -89 l22 -9 0 -300 0 -300
-410 0 -410 0 0 253 c0 281 9 341 73 462 46 88 164 203 256 248 40 20 76 37
80 37 3 0 17 -29 30 -64z m3726 21 c78 -41 201 -163 242 -242 64 -121 73 -181
73 -462 l0 -253 -410 0 -410 0 0 300 0 300 28 11 c192 77 294 170 353 326 27
71 25 71 124 20z m-805 -542 l0 -175 -293 0 c-332 0 -317 -3 -336 79 -12 56
-38 91 -82 113 -31 16 -72 18 -409 18 -337 0 -378 -2 -409 -18 -44 -22 -70
-57 -82 -113 -19 -82 -4 -79 -336 -79 l-293 0 0 175 0 175 1120 0 1120 0 0
-175z m-2774 -761 c-21 -158 -180 -225 -298 -126 -38 32 -58 78 -58 132 l0 40
181 0 182 0 -7 -46z m3664 6 c0 -54 -20 -100 -58 -132 -118 -99 -277 -32 -298
126 l-7 46 182 0 181 0 0 -40z" fill="#ffffff" class="color000 svgShape"></path><path d="M1439 3117c-73-31-122-69-158-124-60-90-62-108-59-470 3-325 3-328 28-378 36-74 114-147 185-175 53-21 82-24 241-28 166-4 185-2 227 16 110 49 118 199 15 262-29 18-51 20-196 20-93 0-172 4-183 10-16 9-19 22-19 80l0 70 173 0c144 0 178 3 207 18 107 53 107 211 0 264-29 15-63 18-207 18l-173 0 0 59c0 35 5 63 13 69 7 6 85 12 182 14 155 3 173 5 206 25 52 33 73 78 67 142-4 44-11 59-42 89l-36 37-208 3c-197 2-210 1-263-21zM2349 3117c-102-42-160-102-199-206-18-47-20-78-20-362 0-213 4-325 12-353 30-102 110-189 207-228 49-19 80-22 246-26 219-4 251 2 298 61 39 48 42 115 9 169-38 61-67 68-265 68-146 0-178 3-191 16-14 13-16 54-16 288 0 207 3 276 13 284 7 6 88 12 192 14 209 4 234 12 273 88 35 69 13 152-51 190-29 18-51 20-242 20-196 0-214-2-266-23zM3312 3116c-139-52-228-147-276-293-15-44-17-88-14-300l3-248 36-75c115-238 391-324 623-194 53 29 137 116 164 170 45 89 52 136 52 370 0 195-2 230-20 288-40 127-153 241-283 285-85 29-201 28-285-3zm223-296c58-36 65-65 65-282 0-174-2-196-20-225-28-46-65-67-120-67-55 0-92 21-120 67-18 29-20 51-20 230 0 220 5 242 63 277 42 26 110 26 152 0z" fill="#ffffff" class="color000 svgShape"></path></g></svg></g></svg>