<svg id="SvgjsSvg1013" width="288" height="288" xmlns="http://www.w3.org/2000/svg" version="1.1" xmlns:xlink="http://www.w3.org/1999/xlink" xmlns:svgjs="http://svgjs.com/svgjs"><defs id="SvgjsDefs1014"></defs><g id="SvgjsG1015"><svg xmlns="http://www.w3.org/2000/svg" width="288" height="288" version="1.0" viewBox="0 0 512 512"><g transform="matrix(.1 0 0 -.1 0 512)" fill="#ffffff" class="color000 svgShape"><path d="M2025 4716 c-220 -49 -407 -197 -505 -401 -82 -169 -80 -135 -80-1115 l0 -860 -554 0 -553 0 -33 -22 c-54 -37 -75 -73 -75 -128 0 -52 19 -87
69 -124 20 -15 46 -22 102 -24 l74 -4 0 -92 c0 -52 7 -112 15 -141 34 -110
129 -211 242 -256 56 -22 72 -24 384 -27 l326 -3 6 -102 c3 -56 13 -129 22
-162 37 -138 134 -288 250 -384 68 -57 207 -125 297 -146 l74 -18 29 -56 c81
-156 260 -261 445 -261 91 0 199 30 272 76 64 40 140 122 173 185 l29 56 74
18 c90 21 229 89 297 146 116 96 213 246 250 384 9 33 19 106 22 162 l6 102
326 3 c312 3 328 5 384 27 113 45 208 146 242 256 8 29 15 89 15 141 l0 92 74
4 c56 2 82 9 102 24 50 37 69 72 69 124 0 55 -21 91 -75 128 l-33 22 -553 0
-554 0 0 860 c0 982 3 945 -81 1119 -43 87 -63 116 -132 186 -93 92 -183 150
-302 192 l-80 28 -500 2 c-386 1 -514 -1 -560 -11z m765 -431 c0 -80 -3 -145
-7 -145 -5 0 -33 10 -63 22 -44 17 -76 22 -160 22 -84 0 -116 -5 -160 -22 -30
-12 -58 -22 -62 -22 -5 0 -8 65 -8 145 l0 145 230 0 230 0 0 -145z m-760
-1571 l0 -1685 -61 32 c-103 55 -191 172 -218 290 -7 29 -11 512 -11 1369 0
1430 -2 1368 53 1477 33 64 113 145 175 178 26 13 50 24 55 25 4 0 7 -759 7
-1686z m1120 1661 c63 -32 143 -113 177 -178 55 -109 53 -47 53 -1477 0 -857
-4 -1340 -11 -1369 -27 -118 -115 -235 -218 -290 l-61 -32 0 1685 c0 927 2
1686 5 1686 3 0 28 -11 55 -25z m-535 -496 c24 -6 62 -26 84 -45 77 -66 72 53
69 -1564 l-3 -1445 -27 -38 c-14 -22 -43 -51 -65 -65 -33 -23 -48 -27 -113
-27 -65 0 -80 4 -113 27 -22 14 -51 43 -65 65 l-27 38 -3 1445 c-3 1617 -8
1498 70 1564 58 50 117 64 193 45z m-1175 -1949 l0 -110 -289 0 c-179 0 -300
4 -319 11 -48 16 -62 47 -62 134 l0 75 335 0 335 0 0 -110z m2910 35 c0 -87
-14 -118 -62 -134 -19 -7 -140 -11 -319 -11 l-289 0 0 110 0 110 335 0 335 0
0 -75z" fill="#ffffff" class="color000 svgShape"></path><path d="M240 3798c-67-45-70-60-70-370l0-277-63-30c-101-48-133-130-84-215 25-45 77-76 124-76 44 0 241 75 271 103 48 44 52 69 52 337l0 250 130 0 130 0 0-185 0-185-65-29c-77-35-105-73-105-142 0-81 67-149 147-149 34 0 216 66 258 94 14 9 33 31 42 49 16 29 18 66 18 387 0 390 0 387-63 435-26 19-45 20-357 23l-331 3-34-23zM4343 3804c-18-9-43-33-55-53-22-35-23-45-26-322l-3-285-49-18c-137-49-154-217-28-282 42-22 80-17 193 24 191 71 185 58 185 396l0 256 130 0 130 0 0-188 0-187-49-18c-95-33-139-121-105-206 19-48 81-91 132-91 43 0 240 75 270 103 50 45 52 62 52 429 0 383-1 390-69 435-34 23-38 23-355 23-274 0-326-3-353-16z" fill="#ffffff" class="color000 svgShape"></path></g></svg></g></svg>